<?xml version="1.0" encoding="iso-8859-1"?>
<!-- Uploaded to: SVG Repo, www.svgrepo.com, Generator: SVG Repo Mixer Tools -->
<!DOCTYPE svg PUBLIC "-//W3C//DTD SVG 1.1//EN" "http://www.w3.org/Graphics/SVG/1.1/DTD/svg11.dtd">
<svg fill="#000000" version="1.1" id="Capa_1" xmlns="http://www.w3.org/2000/svg" xmlns:xlink="http://www.w3.org/1999/xlink" 
	 width="800px" height="800px" viewBox="0 0 55.703 55.704"
	 xml:space="preserve">
<g>
	<g>
		<g>
			<path d="M27.851,55.703C12.494,55.703,0,43.208,0,27.852S12.493,0,27.851,0s27.852,12.493,27.852,27.851
				S43.208,55.703,27.851,55.703z M27.851,4.49c-12.882,0-23.362,10.48-23.362,23.362c0,12.882,10.48,23.362,23.362,23.362
				c12.883,0,23.363-10.479,23.363-23.362C51.214,14.97,40.734,4.49,27.851,4.49z"/>
		</g>
		<path d="M24.37,28.813l4.443-4.445c0.916-0.913,2.344-0.986,3.353-0.236c0.127,0.032,0.247,0.086,0.346,0.186l1.096,1.094
			c0.711,0.711,1.861,0.711,2.572,0l3.053-3.054c0.711-0.708,0.711-1.858,0-2.57l-2.193-2.192c-2.719-2.717-7.141-2.717-9.858,0
			l-9.583,9.582c-2.718,2.719-2.718,7.143,0,9.859l2.192,2.192c0.71,0.711,1.859,0.711,2.571,0l3.053-3.053
			c0.711-0.709,0.71-1.861,0-2.57l-1.097-1.096c-0.098-0.1-0.15-0.22-0.184-0.347C23.381,31.157,23.454,29.727,24.37,28.813z"/>
	</g>
</g>
</svg>